# xmcd CD database file
#
# Track frame offsets:
#	150
#	24490
#	47290
#	70735
#	93552
#	110512
#	135312
#	157850
#	176710
#	200770
#	221165
#	244577
#	266680
#	286847
#	309485
#
# Disc length: 4426 seconds
#
# Revision: 0
# Processed by: cddbd v1.5PL3 Copyright (c) Steve Scherf et al.
# Submitted via: freeDB plugin v1.0
#
DISCID=cf11480f
DTITLE=Tina - best selection true love
DYEAR=1900
DGENRE=Misc
TTITLE0=There Must Be An Angel
TTITLE1=I'll be there
TTITLE2=Stay for me
TTITLE3=Spend The Time
TTITLE4=L'Adieu
TTITLE5=Magic
TTITLE6=Feeling Out !
TTITLE7=I can't take it
TTITLE8=Spanish Groovin'
TTITLE9=Sunshine Love
TTITLE10=Tears Rain
TTITLE11=迷路
TTITLE12=Sad Song
TTITLE13=Yesterday Once More
TTITLE14=I'll be there ~DJ HASEBE REMIX~
EXTD=
EXTT0=
EXTT1=
EXTT2=
EXTT3=
EXTT4=
EXTT5=
EXTT6=
EXTT7=
EXTT8=
EXTT9=
EXTT10=
EXTT11=
EXTT12=
EXTT13=
EXTT14=
PLAYORDER=
